<svg id="visual" viewBox="0 0 900 600" width="900" height="600" xmlns="http://www.w3.org/2000/svg" xmlns:xlink="http://www.w3.org/1999/xlink" version="1.1"><rect x="0" y="0" width="900" height="600" fill="#ffffff"></rect><path d="M0 468L129 414L257 464L386 447L514 467L643 424L771 455L900 458L900 601L771 601L643 601L514 601L386 601L257 601L129 601L0 601Z" fill="#00b6cf"></path><path d="M0 487L129 431L257 471L386 491L514 479L643 492L771 430L900 436L900 601L771 601L643 601L514 601L386 601L257 601L129 601L0 601Z" fill="#009dc8"></path><path d="M0 481L129 512L257 515L386 467L514 496L643 514L771 489L900 506L900 601L771 601L643 601L514 601L386 601L257 601L129 601L0 601Z" fill="#0082bc"></path><path d="M0 492L129 507L257 525L386 538L514 533L643 504L771 506L900 518L900 601L771 601L643 601L514 601L386 601L257 601L129 601L0 601Z" fill="#0068ab"></path><path d="M0 559L129 547L257 525L386 527L514 553L643 539L771 533L900 518L900 601L771 601L643 601L514 601L386 601L257 601L129 601L0 601Z" fill="#094d96"></path><path d="M0 550L129 575L257 567L386 580L514 551L643 572L771 559L900 553L900 601L771 601L643 601L514 601L386 601L257 601L129 601L0 601Z" fill="#1d317e"></path></svg>